<?xml version="1.0" encoding="UTF-8"?>
<svg xmlns="http://www.w3.org/2000/svg" xmlns:xlink="http://www.w3.org/1999/xlink" width="3001" height="3001" viewBox="0 0 3001 3001">
<path fill-rule="evenodd" fill="rgb(100%, 100%, 100%)" fill-opacity="1" d="M 1 0 L 3001 0 L 3001 3000 L 1 3000 L 1 0 "/>
<path fill-rule="evenodd" fill="rgb(0%, 0%, 0%)" fill-opacity="1" d="M 1498.699219 2023.316406 L 767.210938 2023.316406 C 760.308594 2023.316406 755.707031 2018.714844 755.707031 2011.816406 L 755.707031 1183.710938 C 755.707031 1176.808594 760.308594 1172.210938 767.210938 1172.210938 L 875.324219 1172.210938 L 875.324219 1004.289062 C 875.324219 999.691406 879.921875 995.089844 884.523438 992.789062 C 930.527344 981.28125 976.53125 976.679688 1027.140625 976.679688 C 1208.859375 976.679688 1379.078125 1038.789062 1498.699219 1149.210938 C 1622.910156 1041.089844 1795.441406 976.679688 1974.859375 976.679688 C 2025.460938 976.679688 2071.46875 981.28125 2117.480469 992.789062 C 2122.078125 995.089844 2126.679688 999.691406 2126.679688 1004.289062 L 2126.679688 1172.210938 L 2234.789062 1172.210938 C 2241.691406 1172.210938 2246.289062 1176.808594 2246.289062 1183.710938 L 2246.289062 2011.8125 C 2246.289062 2018.714844 2241.691406 2023.3125 2234.789062 2023.3125 Z M 1528.601562 2000.308594 L 2223.289062 2000.308594 L 2223.289062 1195.210938 L 2126.679688 1195.210938 L 2126.679688 1846.191406 C 2126.679688 1850.789062 2124.378906 1853.101562 2122.078125 1855.390625 C 2119.78125 1857.699219 2115.179688 1857.699219 2112.878906 1857.699219 C 2069.171875 1848.5 2025.46875 1848.5 1974.859375 1848.5 C 1804.640625 1846.191406 1645.921875 1901.398438 1528.601562 2000.308594 Z M 776.410156 2000.308594 L 1466.488281 2000.308594 C 1353.78125 1903.699219 1190.460938 1848.5 1024.839844 1848.5 C 974.234375 1848.5 930.527344 1848.5 886.820312 1857.699219 C 884.519531 1857.699219 879.921875 1857.699219 877.621094 1855.390625 C 875.320312 1853.089844 873.019531 1850.789062 873.019531 1846.191406 L 873.019531 1195.210938 L 776.410156 1195.210938 Z M 1510.199219 1167.609375 L 1510.199219 1984.210938 C 1632.109375 1880.699219 1797.738281 1823.191406 1974.859375 1823.191406 C 2018.570312 1823.191406 2062.269531 1823.191406 2103.671875 1830.089844 L 2103.671875 1011.191406 C 2062.269531 1001.988281 2020.859375 997.390625 1974.859375 997.390625 C 1797.730469 999.691406 1629.820312 1061.800781 1510.199219 1167.609375 Z M 1027.140625 1823.191406 C 1204.261719 1823.191406 1369.878906 1880.699219 1487.199219 1984.210938 L 1487.199219 1167.609375 C 1372.179688 1059.5 1204.261719 999.691406 1027.140625 999.691406 C 981.136719 999.691406 939.730469 1004.289062 898.324219 1013.488281 L 898.324219 1832.390625 C 939.730469 1823.191406 981.136719 1823.191406 1027.140625 1823.191406 "/>
</svg>
